<?xml version="1.0" standalone="no"?>
<!DOCTYPE svg PUBLIC "-//W3C//DTD SVG 20010904//EN"
 "http://www.w3.org/TR/2001/REC-SVG-20010904/DTD/svg10.dtd">
<svg version="1.0" xmlns="http://www.w3.org/2000/svg"
 width="1024.000000pt" height="1024.000000pt" viewBox="0 0 1024.000000 1024.000000"
 preserveAspectRatio="xMidYMid meet">

<g transform="translate(0.000000,1024.000000) scale(0.100000,-0.100000)"
fill="#000000" stroke="none">
<path d="M4960 8044 c-441 -54 -698 -128 -1040 -299 -615 -308 -1085 -794
-1356 -1405 -181 -409 -255 -803 -241 -1280 10 -321 51 -563 146 -842 96 -284
268 -601 460 -848 91 -117 316 -346 436 -445 223 -183 528 -362 782 -459 317
-121 669 -185 1017 -187 354 -2 659 49 995 166 521 182 944 488 1322 957 65
82 119 152 119 157 0 6 -141 119 -312 252 -172 133 -351 272 -398 309 -47 36
-134 104 -195 150 -60 46 -147 112 -192 147 l-81 63 -56 -84 c-145 -218 -358
-409 -571 -511 -193 -93 -394 -138 -620 -138 -342 0 -613 101 -877 327 -232
198 -397 492 -454 808 -23 128 -23 388 1 523 93 532 491 980 986 1108 159 42
235 50 401 44 173 -5 277 -28 452 -98 317 -127 585 -389 743 -726 25 -54 47
-100 49 -102 2 -2 83 73 181 166 98 94 197 187 221 208 23 20 42 41 42 44 0 4
-125 127 -277 273 -426 407 -483 465 -549 563 -61 92 -110 201 -141 315 -14
54 -18 125 -23 410 l-5 345 -100 22 c-201 45 -378 65 -610 68 -121 2 -236 1
-255 -1z"/>
<path d="M6412 7553 c4 -194 6 -213 31 -283 51 -142 111 -209 632 -707 l191
-181 171 161 c94 89 173 167 176 173 7 14 -171 249 -274 360 -182 197 -379
367 -579 497 -105 68 -320 187 -339 187 -11 0 -13 -37 -9 -207z"/>
<path d="M3750 2073 c-510 -9 -814 -49 -837 -109 -8 -22 34 -60 85 -74 119
-33 491 -77 842 -100 1165 -74 2810 -33 3460 86 115 21 152 39 148 72 -13 111
-411 133 -2343 130 -671 -1 -1281 -3 -1355 -5z"/>
</g>
</svg>
